<svg width="19" height="19" viewBox="0 0 19 19" fill="none" xmlns="http://www.w3.org/2000/svg">
<path d="M1 11.5637C1 9.98276 2.28159 8.70117 3.86251 8.70117V8.70117C4.62799 8.70117 5.3194 8.24376 5.61881 7.53926L8.03736 1.84856C8.20419 1.45603 8.58942 1.20117 9.01593 1.20117V1.20117C10.2885 1.20117 11.2762 2.31134 11.128 3.57525L10.8949 5.56481C10.7928 6.43598 11.4736 7.20117 12.3507 7.20117H14.2728C16.2659 7.20117 17.7049 9.10889 17.1574 11.0253L15.8717 15.5253C15.5037 16.8132 14.3265 17.7012 12.9871 17.7012H4C2.34315 17.7012 1 16.358 1 14.7012V11.5637Z" stroke="#F4B740" stroke-width="2"/>
<path d="M4.75 7.95117V17.7012" stroke="#F4B740" stroke-width="2"/>
</svg>
